<svg xmlns="http://www.w3.org/2000/svg" xmlns:xlink="http://www.w3.org/1999/xlink" version="1.1" id="Layer_1" x="0px" y="0px" width="100px" height="100px" viewBox="0 0 100 100" enable-background="new 0 0 100 100" xml:space="preserve">
<path d="M60,49.775c0-4.283,2.033-7.688,5.371-9.158c3.34-1.469,7.104-0.679,10.012,1.972c0.933,0.849,1.748,1.257,2.6,0.86  C78.857,43.041,79,41.545,79,40.615V24.657C79,22.524,77.416,21,75.282,21H59.633c-5.219,0-6.382-4.397-3.712-7.422  c4.396-4.98,2.041-12.681-5.958-13.015c-7.998,0.333-10.353,8.021-5.957,13.002C46.676,16.591,45.514,21,40.295,21H24.877  C22.744,21,21,22.524,21,24.657v50.405C21,77.195,22.744,79,24.877,79h50.405C77.416,79,79,77.195,79,75.062V59.208  c0-0.93-0.213-2.495-1.104-2.91c-0.885-0.412-1.929,0.018-2.872,0.878c-2.896,2.642-6.443,3.377-9.747,1.923  C61.956,57.636,60,54.197,60,49.901v-0.076V49.775z"/>
</svg>